<svg xmlns="http://www.w3.org/2000/svg" viewBox="0 0 512 512"><rect width="512" height="512" rx="50" ry="50" fill="#004197"/><path d="M98.145-44.678L98.145-44.678Q98.145-63.867 88.623-76.245Q79.102-88.623 63.281-88.623L63.281-88.623Q59.033-88.623 53.760-87.305Q48.486-85.986 47.754-85.986L47.754-85.986L46.582-86.279Q45.117-87.012 43.945-90.527L43.945-90.527Q40.576-101.953 31.934-108.838L31.934-108.838Q3.809-131.543 3.809-169.189L3.809-169.189Q3.809-199.512 23.657-215.918Q43.506-232.324 78.662-232.324L78.662-232.324Q94.043-232.324 105.688-226.465Q117.334-220.605 123.633-215.039L123.633-215.039Q137.842-202.295 137.842-181.934L137.842-181.934Q137.842-175.195 134.326-163.916Q130.811-152.637 130.811-150.293L130.811-150.293Q130.811-141.504 138.135-133.447L138.135-133.447Q135.498-134.326 130.664-134.326Q125.830-134.326 121.509-136.816Q117.188-139.307 114.697-142.969L114.697-142.969Q109.863-149.854 107.520-158.643L107.520-158.643Q106.494-157.031 100.049-155.347Q93.604-153.662 89.136-153.662Q84.668-153.662 81.299-154.907Q77.930-156.152 76.392-157.544Q74.854-158.936 74.121-161.133L74.121-161.133Q73.096-163.623 73.096-165.527L73.096-165.527Q82.178-165.967 88.989-170.215Q95.801-174.463 95.801-183.911Q95.801-193.359 90.161-198.633Q84.521-203.906 77.490-203.906L77.490-203.906Q54.492-203.906 54.492-176.367L54.492-176.367Q54.492-153.076 66.357-141.650L66.357-141.650Q72.510-135.645 78.955-135.645Q85.400-135.645 92.432-137.622Q99.463-139.600 100.562-139.600Q101.660-139.600 102.979-135.791L102.979-135.791Q107.520-122.754 114.258-118.213L114.258-118.213Q130.225-107.666 139.600-91.113Q148.975-74.561 148.975-55.811Q148.975-37.061 142.383-24.023Q135.791-10.986 124.951-2.930L124.951-2.930Q102.686 13.623 73.389 13.623L73.389 13.623Q46.289 13.623 26.953-0.732L26.953-0.732Q17.578-7.764 11.938-18.970Q6.299-30.176 6.299-40.283Q6.299-50.391 10.181-61.450Q14.063-72.510 14.063-78.589Q14.063-84.668 9.082-91.406L9.082-91.406Q11.133-92.871 14.502-92.871L14.502-92.871Q23.584-92.871 30.542-83.862Q37.500-74.854 37.646-65.479L37.646-65.479Q47.314-70.605 54.492-70.605Q61.670-70.605 65.186-69.214Q68.701-67.822 70.166-65.625L70.166-65.625Q72.656-62.109 72.656-59.180L72.656-59.180L72.656-58.008Q64.160-56.982 57.788-50.903Q51.416-44.824 51.416-35.449Q51.416-26.074 57.422-21.533Q63.428-16.992 72.583-16.992Q81.738-16.992 89.941-24.243Q98.145-31.494 98.145-44.678ZM250.928-44.678L250.928-44.678Q250.928-63.867 241.406-76.245Q231.885-88.623 216.064-88.623L216.064-88.623Q211.816-88.623 206.543-87.305Q201.270-85.986 200.537-85.986L200.537-85.986L199.365-86.279Q197.900-87.012 196.729-90.527L196.729-90.527Q193.359-101.953 184.717-108.838L184.717-108.838Q156.592-131.543 156.592-169.189L156.592-169.189Q156.592-199.512 176.440-215.918Q196.289-232.324 231.445-232.324L231.445-232.324Q246.826-232.324 258.472-226.465Q270.117-220.605 276.416-215.039L276.416-215.039Q290.625-202.295 290.625-181.934L290.625-181.934Q290.625-175.195 287.109-163.916Q283.594-152.637 283.594-150.293L283.594-150.293Q283.594-141.504 290.918-133.447L290.918-133.447Q288.281-134.326 283.447-134.326Q278.613-134.326 274.292-136.816Q269.971-139.307 267.480-142.969L267.480-142.969Q262.646-149.854 260.303-158.643L260.303-158.643Q259.277-157.031 252.832-155.347Q246.387-153.662 241.919-153.662Q237.451-153.662 234.082-154.907Q230.713-156.152 229.175-157.544Q227.637-158.936 226.904-161.133L226.904-161.133Q225.879-163.623 225.879-165.527L225.879-165.527Q234.961-165.967 241.772-170.215Q248.584-174.463 248.584-183.911Q248.584-193.359 242.944-198.633Q237.305-203.906 230.273-203.906L230.273-203.906Q207.275-203.906 207.275-176.367L207.275-176.367Q207.275-153.076 219.141-141.650L219.141-141.650Q225.293-135.645 231.738-135.645Q238.184-135.645 245.215-137.622Q252.246-139.600 253.345-139.600Q254.443-139.600 255.762-135.791L255.762-135.791Q260.303-122.754 267.041-118.213L267.041-118.213Q283.008-107.666 292.383-91.113Q301.758-74.561 301.758-55.811Q301.758-37.061 295.166-24.023Q288.574-10.986 277.734-2.930L277.734-2.930Q255.469 13.623 226.172 13.623L226.172 13.623Q199.072 13.623 179.736-0.732L179.736-0.732Q170.361-7.764 164.722-18.970Q159.082-30.176 159.082-40.283Q159.082-50.391 162.964-61.450Q166.846-72.510 166.846-78.589Q166.846-84.668 161.865-91.406L161.865-91.406Q163.916-92.871 167.285-92.871L167.285-92.871Q176.367-92.871 183.325-83.862Q190.283-74.854 190.430-65.479L190.430-65.479Q200.098-70.605 207.275-70.605Q214.453-70.605 217.969-69.214Q221.484-67.822 222.949-65.625L222.949-65.625Q225.439-62.109 225.439-59.180L225.439-59.180L225.439-58.008Q216.943-56.982 210.571-50.903Q204.199-44.824 204.199-35.449Q204.199-26.074 210.205-21.533Q216.211-16.992 225.366-16.992Q234.521-16.992 242.725-24.243Q250.928-31.494 250.928-44.678ZM423.633-228.809L423.633-228.809Q438.721-228.809 449.268-213.428L449.268-213.428Q450-214.893 452.930-218.188Q455.859-221.484 458.496-223.535L458.496-223.535Q465.967-228.809 473.438-228.809Q480.908-228.809 484.717-226.611Q488.525-224.414 489.111-222.363L489.111-222.363L489.697-220.166Q479.736-210.645 475.854-199.438Q471.973-188.232 471.973-170.435Q471.973-152.637 473.584-141.724Q475.195-130.811 477.539-125.830Q479.883-120.850 482.300-118.066Q484.717-115.283 486.328-113.818Q487.939-112.354 487.939-110.962Q487.939-109.570 486.328-107.959Q484.717-106.348 482.300-103.198Q479.883-100.049 477.539-94.922L477.539-94.922Q471.973-82.471 471.973-58.374Q471.973-34.277 475.854-22.632Q479.736-10.986 489.697-1.465L489.697-1.465Q489.697 3.955 481.641 6.445L481.641 6.445Q478.418 7.324 472.778 7.324Q467.139 7.324 460.913 3.076Q454.688-1.172 452.051-5.273L452.051-5.273L449.268-9.521Q442.969 1.025 432.422 5.566L432.422 5.566Q428.174 7.324 422.681 7.324Q417.188 7.324 413.306 5.127Q409.424 2.930 408.691 0.732L408.691 0.732L408.105-1.465Q418.066-10.986 421.948-22.632Q425.830-34.277 425.830-47.681Q425.830-61.084 425.757-64.526Q425.684-67.969 425.464-72.803Q425.244-77.637 424.805-80.127Q424.365-82.617 423.560-85.986Q422.754-89.355 421.509-91.040Q420.264-92.725 418.433-94.629Q416.602-96.533 414.258-97.412L414.258-97.412Q408.545-99.463 402.832-99.463Q397.119-99.463 393.750-98.877Q390.381-98.291 387.964-96.680Q385.547-95.068 383.789-93.457Q382.031-91.846 380.933-88.403Q379.834-84.961 379.175-82.324Q378.516-79.688 378.223-74.414L378.223-74.414Q377.783-66.650 377.783-50.391Q377.783-34.131 381.665-22.559Q385.547-10.986 395.508-1.465L395.508-1.465Q395.508 3.809 387.305 6.445L387.305 6.445Q384.229 7.324 378.589 7.324Q372.949 7.324 366.577 3.076Q360.205-1.172 357.422-5.273L357.422-5.273L354.492-9.521Q353.906-8.057 350.977-4.395Q348.047-0.732 345.410 1.465L345.410 1.465Q338.086 7.324 330.688 7.324Q323.291 7.324 319.409 5.127Q315.527 2.930 314.941 0.732L314.941 0.732L314.209-1.465Q324.170-10.986 328.052-22.632Q331.934-34.277 331.934-51.563Q331.934-68.848 330.322-79.248Q328.711-89.648 326.367-94.849Q324.023-100.049 321.606-103.198Q319.189-106.348 317.578-107.959Q315.967-109.570 315.967-110.962Q315.967-112.354 317.578-113.818Q319.189-115.283 321.606-118.066Q324.023-120.850 326.367-125.830L326.367-125.830Q331.934-137.695 331.934-162.964Q331.934-188.232 328.052-199.438Q324.170-210.645 314.209-220.166L314.209-220.166Q314.209-225.293 322.412-227.930L322.412-227.930Q325.488-228.809 329.736-228.809L329.736-228.809Q344.678-228.809 354.492-213.428L354.492-213.428Q366.064-228.809 380.127-228.809L380.127-228.809Q386.719-228.809 390.527-226.611Q394.336-224.414 394.922-222.363L394.922-222.363L395.508-220.166Q385.547-210.645 381.665-199.438Q377.783-188.232 377.783-168.164L377.783-168.164L377.783-163.623Q377.783-138.867 381.006-133.447L381.006-133.447Q383.789-128.613 385.840-127.515Q387.891-126.416 390.088-125.537L390.088-125.537Q393.896-124.072 400.195-124.072Q406.494-124.072 410.303-124.878Q414.111-125.684 416.748-126.929Q419.385-128.174 421.069-131.030Q422.754-133.887 423.779-136.377Q424.805-138.867 425.244-143.994L425.244-143.994Q425.830-151.465 425.830-164.648L425.830-164.648L425.830-168.164Q425.830-188.232 421.948-199.438Q418.066-210.645 408.105-220.166L408.105-220.166Q408.105-225.293 416.455-227.930L416.455-227.930Q419.531-228.809 423.633-228.809Z" fill="#fff" transform="translate(9.246999740600586, 365.35050201416016)"/></svg>